# xmcd
#
# Track frame offsets: 
#        150
#        15837
#        36200
#        57451
#        77574
#        95079
#        111766
#        129294
#        145088
#        165951
#        182220
#        201816
#
# Disc length: 2915 seconds
#
# Revision: 0
# Processed by: cddbd v1.5.1PL2 Copyright (c) Steve Scherf et al.
# Submitted via: ExactAudioCopy v0.95b3
#
DISCID=940b610c
DTITLE=Jason Mitchell - Little Coma
DYEAR=1900
DGENRE=Country
TTITLE0=I Need More
TTITLE1=Working For The Moon
TTITLE2=Little Coma
TTITLE3=So Turned Up
TTITLE4=Roadmap
TTITLE5=Swimming
TTITLE6=Wish I Could Save U
TTITLE7=Cream and Bastards
TTITLE8=Hollywood Dreams
TTITLE9=Green Bowl
TTITLE10=When Love Falls Asleep
TTITLE11=Cowboys Resignation
EXTD=
EXTT0=
EXTT1=
EXTT2=
EXTT3=
EXTT4=
EXTT5=
EXTT6=
EXTT7=
EXTT8=
EXTT9=
EXTT10=
EXTT11=
PLAYORDER=
